<svg width="48" height="48" viewBox="0 0 48 48" fill="none" xmlns="http://www.w3.org/2000/svg">
<path d="M46 32.7407C46 33.8826 45.6954 35.0042 45.1169 35.9926C44.5384 36.9809 43.7064 37.8009 42.7049 38.3699L27.2721 47.1368C26.2765 47.7024 25.1484 48 24.0002 48C22.8519 48 21.7238 47.7024 20.7282 47.1368L5.29541 38.3699C4.29388 37.801 3.46185 36.981 2.88327 35.9926C2.30468 35.0043 2.00002 33.8826 2 32.7407V15.2593C1.99998 14.1174 2.3046 12.9958 2.88313 12.0074C3.46165 11.0191 4.29361 10.1991 5.29508 9.63013L20.7279 0.863174C21.7235 0.29762 22.8516 0 23.9998 0C25.1481 0 26.2762 0.29762 27.2718 0.863174L42.7046 9.63013C43.7061 10.199 44.5381 11.019 45.1167 12.0074C45.6953 12.9957 46 14.1174 46 15.2593V32.7407Z" fill="#1D86CC"/>
<path d="M22.0976 3.30396L6.86183 12.0037C6.2826 12.3343 5.80159 12.8099 5.46727 13.3826C5.13295 13.9553 4.9571 14.6049 4.95734 15.2661L4.96688 32.6848C4.9673 33.345 5.14329 33.9935 5.47721 34.5653C5.81113 35.137 6.29122 35.6119 6.86937 35.9423L22.123 44.6596C22.702 44.9901 23.3588 45.1641 24.0274 45.1641C24.696 45.1641 25.3528 44.9901 25.9319 44.6596L41.1677 35.9625C41.747 35.6319 42.2279 35.1563 42.5622 34.5836C42.8965 34.0109 43.0724 33.3613 43.0721 32.7001L43.0627 15.2814C43.0622 14.6212 42.8861 13.9728 42.5522 13.4011C42.2183 12.8294 41.7382 12.3546 41.1601 12.0242L25.9066 3.30655C25.3276 2.97606 24.6707 2.80206 24.0021 2.80206C23.3335 2.80206 22.6767 2.97606 22.0976 3.30655V3.30396Z" fill="white"/>
<path d="M17.0691 38.7718C17.0926 38.6583 17.1439 38.5523 17.2187 38.4631C21.7764 30.8177 26.3348 23.1726 30.894 15.5279C30.9573 15.4217 31.0161 15.3127 31.0699 15.2176C31.0299 15.1484 30.9842 15.1627 30.9455 15.1627C28.9977 15.1695 27.0498 15.1819 25.1007 15.1796C25.0174 15.1781 24.9357 15.2019 24.8665 15.2478C24.7972 15.2936 24.7439 15.3593 24.7136 15.436C23.2443 17.8382 21.7731 20.2397 20.3001 22.6406C17.1796 27.7304 14.0588 32.8201 10.9376 37.9097C10.91 37.9548 10.8811 37.9989 10.8565 38.0454C10.8013 38.1505 10.7386 38.1671 10.6266 38.1028C10.1423 37.8201 9.65275 37.5464 9.13822 37.2539L23.0278 15.2312C22.9979 15.1416 22.9365 15.164 22.8892 15.1624C22.1448 15.1403 21.4001 15.1085 20.6564 15.102C19.6116 15.0714 18.5703 15.2373 17.5881 15.5909C16.6937 15.9183 15.9335 16.5285 15.4256 17.3266C12.8878 21.2398 10.3405 25.1469 7.78342 29.0479C7.74336 29.1096 7.70069 29.17 7.65932 29.231C7.51287 29.231 7.5345 29.1115 7.52103 29.0281C7.50808 28.9025 7.50506 28.776 7.5119 28.6499C7.5119 24.3351 7.527 20.0203 7.49843 15.7058C7.47549 15.334 7.56587 14.964 7.758 14.6436C7.95013 14.3232 8.23516 14.0672 8.57609 13.9087C11.9322 12.0172 15.2667 10.0867 18.612 8.17596C20.1051 7.32319 21.6027 6.47853 23.0849 5.6079C23.3637 5.42297 23.6919 5.32422 24.0276 5.32422C24.3634 5.32422 24.6915 5.42297 24.9704 5.6079C27.6957 7.18912 30.4454 8.73364 33.1848 10.2925C35.2511 11.4687 37.3184 12.6428 39.3866 13.8149C39.5347 13.8983 39.6788 13.9876 39.8275 14.0697C40.0694 14.1968 40.2694 14.3896 40.4039 14.6255C40.5384 14.8613 40.6019 15.1303 40.5867 15.4007C40.5906 20.0942 40.5906 24.7877 40.5867 29.4813C40.5964 29.5968 40.5836 29.713 40.5493 29.8237C40.3851 29.9805 40.3257 29.8046 40.2659 29.7212C40.0197 29.3787 39.7987 29.0181 39.5698 28.6636C37.7371 25.8275 35.8983 22.9952 34.0534 20.1667C33.4334 19.2107 32.8056 18.2586 32.1922 17.2987C32.0491 17.0747 32.0232 17.0715 31.88 17.312C30.9545 18.8602 30.0295 20.4087 29.1051 21.9576C29.0543 22.0437 29.0325 22.1435 29.0426 22.2426C29.0528 22.3417 29.0944 22.4351 29.1615 22.5095C29.9237 23.7253 30.6845 24.9419 31.4439 26.1595L35.3373 32.3856C35.8627 33.2271 36.3889 34.0677 36.916 34.9076C37.0138 35.0202 37.0689 35.163 37.0717 35.3114C36.9663 35.5185 36.7466 35.5766 36.5637 35.6708C36.2635 35.8851 35.9336 36.0553 35.5842 36.1762C35.3957 36.1298 35.329 35.9616 35.2397 35.824C34.0343 33.9652 32.8444 32.097 31.6469 30.2337C30.4152 28.3185 29.1894 26.3961 27.9525 24.4828C27.7939 24.2374 27.7686 24.2358 27.6195 24.4828C26.5435 26.2724 25.4822 28.0705 24.4036 29.8582C24.3484 29.9419 24.3213 30.0407 24.3261 30.1406C24.3308 30.2405 24.3673 30.3363 24.4302 30.4146C25.8832 32.6285 27.3027 34.8618 28.7402 37.0868C29.1411 37.7068 29.545 38.3245 29.9387 38.9491C30.0155 39.0705 30.1206 39.1916 30.051 39.3558C29.6736 39.6461 29.2664 39.8964 28.8361 40.1025C27.4933 40.8748 26.1499 41.6461 24.8059 42.4164C24.5906 42.5538 24.3397 42.6268 24.0834 42.6268C23.8271 42.6268 23.5763 42.5538 23.361 42.4164C21.3812 41.2841 19.3979 40.1569 17.4109 39.0348C17.274 38.981 17.1554 38.8898 17.0691 38.7718Z" fill="#2D374B"/>
<path d="M40.4901 29.871C40.4931 29.7551 40.499 29.6395 40.499 29.524C40.499 24.841 40.5005 20.1583 40.5036 15.4758C40.5204 15.1918 40.453 14.9092 40.3096 14.6625C40.1662 14.4159 39.9532 14.216 39.6965 14.0874C34.7225 11.2684 29.7521 8.44304 24.7854 5.61129C24.5618 5.46744 24.3009 5.39055 24.0341 5.38986C23.7673 5.38916 23.506 5.4647 23.2816 5.60739C20.5234 7.19218 17.7616 8.77286 14.9964 10.3494C12.7778 11.6191 10.5593 12.8891 8.34094 14.1595C8.10401 14.281 7.90758 14.4675 7.77529 14.6967C7.64301 14.9259 7.5805 15.188 7.59524 15.4514C7.60663 19.9448 7.61303 24.4382 7.61456 28.9315C7.61456 29.0315 7.57353 29.1428 7.66186 29.2311C7.13649 30.0959 6.55924 30.9269 6.00596 31.7732C5.72883 32.197 5.4506 32.62 5.17128 33.0422C5.12662 33.1097 5.07506 33.172 4.98673 33.2925C4.98017 33.1509 4.97327 33.0727 4.97327 32.9948C4.97327 27.0692 4.97436 21.1436 4.97655 15.218C4.96192 14.5604 5.13081 13.9114 5.46468 13.3424C5.79855 12.7734 6.28446 12.3063 6.86918 11.9923C8.79796 10.86 10.7524 9.76998 12.6939 8.65784C14.3321 7.72002 15.9647 6.77505 17.6019 5.8356C19.1288 4.95913 20.6402 4.05637 22.193 3.22762C22.7877 2.90023 23.4605 2.73672 24.1409 2.7542C24.8214 2.77167 25.4847 2.96948 26.0614 3.32695C27.3091 4.02683 28.5517 4.73969 29.7958 5.44671C30.9661 6.11261 32.1363 6.77895 33.3063 7.44571C34.3847 8.05946 35.4633 8.67254 36.5423 9.28499C37.6121 9.89245 38.682 10.4996 39.752 11.1064C40.2222 11.3736 40.692 11.6411 41.1593 11.9131C41.6751 12.2016 42.1187 12.6013 42.4569 13.0825C42.7952 13.5636 43.0194 14.1139 43.1131 14.6925C43.1352 14.8596 43.142 15.0283 43.1334 15.1966C43.1334 21.0274 43.1342 26.8583 43.1357 32.6893C43.1388 33.2433 43.0179 33.7912 42.7816 34.2936C42.5453 34.796 42.1996 35.2405 41.7691 35.5953C41.5235 35.7805 41.2594 35.9405 40.981 36.0728C39.383 36.9945 37.7827 37.9124 36.1801 38.8265C34.4773 39.8004 32.7736 40.7726 31.0692 41.7432C29.4315 42.6812 27.7957 43.6226 26.1616 44.5674C25.7547 44.838 25.2968 45.0247 24.8153 45.1163C24.0154 45.2707 23.1865 45.1664 22.4511 44.819C21.6361 44.3869 20.8422 43.9182 20.0387 43.4631C18.9597 42.851 17.8813 42.2378 16.8034 41.6235C16.4989 41.4503 16.1941 41.2782 15.8892 41.107C15.7772 41.044 15.7007 40.9801 15.7881 40.8356C16.1913 40.1679 16.5883 39.4962 16.9895 38.8272C17.0036 38.8028 17.0397 38.7915 17.0657 38.7736C17.4396 38.9463 17.8016 39.1431 18.1493 39.3628C19.9099 40.3583 21.6679 41.3587 23.4231 42.3639C23.6258 42.4907 23.8613 42.5568 24.1013 42.5542C24.3412 42.5517 24.5752 42.4806 24.7752 42.3496C26.4423 41.3826 28.1179 40.4295 29.7899 39.4715C29.8726 39.4242 29.9574 39.381 30.0414 39.3362C30.1991 39.1371 30.4097 38.9852 30.6496 38.8976C32.16 38.0419 33.6593 37.1694 35.1694 36.3159C35.2955 36.2448 35.4091 36.1351 35.5733 36.1536L37.0529 35.3064C37.1432 35.1194 37.3359 35.059 37.4975 34.9668C38.2419 34.5419 38.9794 34.1053 39.7303 33.694C39.9477 33.5809 40.1273 33.4083 40.2478 33.1967C40.3683 32.9851 40.4245 32.7437 40.4097 32.5014C40.4172 31.7567 40.4097 31.0117 40.4133 30.2667C40.3871 30.1299 40.4147 29.9884 40.4901 29.871Z" fill="#96BEDC"/>
<path d="M40.492 29.8708C40.4959 30.7953 40.5166 31.7211 40.4956 32.6443C40.5014 32.8606 40.4465 33.0743 40.337 33.2617C40.2275 33.449 40.0678 33.6028 39.8753 33.7058C38.9336 34.233 38.0089 34.7901 37.0586 35.303C36.6807 34.6213 36.2443 33.972 35.8312 33.3098C33.6859 29.8723 31.5383 26.4368 29.3882 23.0032C29.2595 22.7974 29.1416 22.5838 28.9977 22.3893C28.9509 22.3335 28.9254 22.2633 28.9254 22.1908C28.9254 22.1183 28.9509 22.0481 28.9977 21.9923C29.511 21.1438 30.0157 20.2903 30.5237 19.4382L31.9336 17.0737C31.9587 17.0175 32.0026 16.9716 32.0581 16.9438C32.3034 17.3175 32.5506 17.6944 32.7975 18.0716C34.2808 20.3547 35.7638 22.6379 37.2465 24.921C38.2519 26.4701 39.2572 28.0193 40.2625 29.5686C40.3176 29.6836 40.3957 29.7863 40.492 29.8708Z" fill="#28A0F0"/>
<path d="M35.5792 36.1498C34.9668 36.5472 34.3173 36.8851 33.6862 37.2535C32.5419 37.9187 31.3903 38.5715 30.2421 39.2292C30.1764 39.2658 30.1107 39.3003 30.0474 39.3356C30.0328 39.2306 29.9871 39.1322 29.916 39.0529C28.8935 37.4642 27.8709 35.8759 26.8482 34.2878C26.0078 32.9837 25.165 31.6809 24.3198 30.3794C24.2625 30.3119 24.2294 30.2277 24.2253 30.1397C24.2213 30.0517 24.2467 29.9648 24.2975 29.8925C25.4273 28.0114 26.5523 26.1276 27.6727 24.2409C27.6993 24.1974 27.7206 24.1468 27.7866 24.1328C27.8785 24.1533 27.9009 24.2442 27.9445 24.312C29.9804 27.4822 32.0162 30.6526 34.052 33.8233C34.4851 34.4982 34.9163 35.1747 35.352 35.8483C35.4075 35.9623 35.4843 36.0648 35.5785 36.1505L35.5792 36.1498Z" fill="#28A0F0"/>
</svg>
