<svg width="48" height="48" viewBox="0 0 48 48" fill="none" xmlns="http://www.w3.org/2000/svg">
<path d="M24 48C37.2548 48 48 37.2548 48 24C48 10.7452 37.2548 0 24 0C10.7452 0 0 10.7452 0 24C0 37.2548 10.7452 48 24 48Z" fill="#FD0000"/>
<path d="M9.90003 24.4773C9.87398 22.8455 10.2722 21.3232 11.2009 19.9696C12.5867 17.9495 14.5158 16.831 16.947 16.5392C18.6628 16.3332 20.31 16.5296 21.8203 17.3873C23.6181 18.4084 24.688 19.9465 24.9441 22.0328C25.2319 24.3787 24.6384 26.4791 23.1625 28.2987C21.9373 29.8093 20.3205 30.6992 18.383 30.9914C16.7331 31.2403 15.1169 31.181 13.5728 30.4827C11.5492 29.5677 10.3901 27.9779 9.9831 25.815C9.95468 25.664 9.9103 25.5134 9.90374 25.3613C9.89104 25.0672 9.90003 24.772 9.90003 24.4773ZM13.7861 24.1297C13.7861 24.3264 13.764 24.5261 13.7899 24.7195C13.9036 25.5683 14.1779 26.3461 14.8662 26.9117C15.8398 27.7118 16.9668 27.8677 18.1413 27.5586C20.2578 27.0016 21.5398 24.6111 21.0019 22.4463C20.5123 20.4759 18.6612 19.4896 16.6559 20.0695C14.8925 20.5795 13.7562 22.1753 13.7861 24.1297V24.1297Z" fill="#FEFDFD"/>
<path d="M32.343 25.9075C31.8012 25.9075 31.3789 25.9126 30.9568 25.9052C30.7743 25.902 30.7032 25.9441 30.6724 26.1549C30.462 27.5916 30.2258 29.0245 30.0015 30.4591C29.969 30.6674 29.8914 30.7677 29.6501 30.7644C28.5947 30.7501 27.539 30.7557 26.4835 30.7605C26.2802 30.7614 26.2004 30.7525 26.2448 30.4851C26.5853 28.4327 26.8937 26.375 27.2219 24.3205C27.5192 22.4592 27.8298 20.6001 28.1327 18.7397C28.2247 18.1745 28.3217 17.6096 28.3927 17.0416C28.4137 16.8737 28.4339 16.7916 28.6269 16.7966C30.4264 16.8432 32.2266 16.7371 34.027 16.8632C34.9716 16.9294 35.841 17.1421 36.6135 17.7037C37.7292 18.5147 38.1699 19.6646 38.1881 20.9827C38.2079 22.4197 37.7714 23.7066 36.7206 24.7408C36.033 25.4175 35.1841 25.7484 34.2464 25.8273C33.5754 25.8837 32.9005 25.9549 32.343 25.9075ZM32.0704 22.8752C32.3089 22.8752 32.5498 22.8963 32.7852 22.8694C33.0335 22.8351 33.2789 22.7822 33.5193 22.7111C34.2253 22.5195 34.5512 22.0956 34.576 21.3534C34.6011 20.6005 34.3128 20.1647 33.6067 19.9325C33.1105 19.7693 32.5912 19.7758 32.0746 19.7442C31.7243 19.7228 31.6487 19.8889 31.6107 20.1629C31.5245 20.7836 31.4449 21.4057 31.3395 22.0232C31.1859 22.9234 31.1772 22.922 32.0704 22.8752L32.0704 22.8752Z" fill="#FEFDFD"/>
</svg>
