<svg width="48" height="48" viewBox="0 0 48 48" fill="none" xmlns="http://www.w3.org/2000/svg">
<g clip-path="url(#clip0_73_357)">
<path d="M29.7349 47.9906H6.20918C6.13077 47.8455 5.97054 47.8585 5.85013 47.798C4.24008 46.9897 3.28742 45.6667 3.12834 43.8269C2.96917 41.9862 3.67879 40.5061 5.12838 39.4176C5.56986 39.0861 6.08485 38.9077 6.60095 38.694C6.54781 38.6292 6.51996 38.5909 6.48792 38.5568C1.09543 32.8214 -0.951251 25.988 0.406672 18.1225C1.96273 9.10927 9.38062 1.71373 18.1291 0.292545C18.7042 0.199122 19.2996 0.224259 19.8541 0H23.43C23.7466 0.209571 24.116 0.127658 24.4559 0.172619C28.3795 0.691546 31.8891 2.22547 35.0184 4.72037C35.5126 5.11433 35.9822 5.53419 36.5382 5.85267C42.4686 9.24963 46.1816 14.3713 47.6348 21.2434C47.7665 21.8661 47.7713 22.5136 47.9909 23.1174V28.3847C47.8658 28.4228 47.9035 28.5373 47.888 28.6251C47.7648 29.3264 47.6869 30.0397 47.5141 30.7275C45.3313 39.4154 40.0781 45.0161 31.7533 47.5063C31.0907 47.7045 30.4082 47.8308 29.7349 47.9906H29.7349ZM7.79454 37.5692C7.80935 37.6125 7.82894 37.658 7.87982 37.6215C7.88896 37.6149 7.85955 37.5506 7.84793 37.5129C7.81134 37.4538 7.77474 37.3947 7.73815 37.3356C7.64463 37.1495 7.55555 36.9608 7.45694 36.7777C5.00355 32.2211 4.14232 27.3468 4.92387 22.207C5.74406 16.813 8.16261 12.2742 12.1701 8.71668C17.0874 4.35151 22.8048 2.63408 29.2293 3.40992C29.388 3.4291 29.5573 3.61835 29.7336 3.43656C29.6662 3.22637 29.4861 3.21946 29.3523 3.16299C26.186 1.82691 22.9009 1.35685 19.504 1.74119C15.1283 2.23627 11.3037 4.03284 8.0752 7.11597C1.53403 13.3626 -0.285207 23.0548 3.4812 31.4277C4.50294 33.6991 5.87653 35.7229 7.65044 37.441C7.69847 37.4837 7.7465 37.5264 7.79454 37.5692ZM26.3459 4.84277C15.1878 4.8725 6.19256 14.2069 6.20789 25.7418C6.22305 37.1547 15.1683 46.8412 26.89 46.5907C37.8064 46.3575 46.5436 37.0298 46.5066 25.6731C46.469 14.1166 37.4632 4.81316 26.3459 4.84277Z" fill="#030102"/>
<path d="M26.3459 4.84278C37.4632 4.81317 46.469 14.1166 46.5066 25.6731C46.5436 37.0298 37.8064 46.3575 26.89 46.5907C15.1683 46.8412 6.22304 37.1548 6.20787 25.7418C6.19255 14.2069 15.1878 4.87251 26.3459 4.84278ZM11.2614 28.8229C10.8301 26.2316 10.2314 23.6948 9.71471 21.1406C9.67355 20.9371 9.59747 20.8767 9.40799 20.8822C9.00069 20.894 8.58969 20.9185 8.18611 20.8767C7.77142 20.8337 7.76902 21.0068 7.84587 21.343C8.56725 24.4978 9.28046 27.6546 9.98664 30.8132C10.0515 31.1031 10.1427 31.2511 10.4688 31.2263C10.9366 31.1906 11.4103 31.1936 11.8787 31.2253C12.2025 31.2472 12.3338 31.1473 12.4061 30.8082C12.7438 29.2257 13.1174 27.6515 13.4658 26.0714C13.6316 25.3196 13.7701 24.5612 13.9461 23.6795C13.9984 23.8634 14.0188 23.9168 14.0286 23.9723C14.4349 26.2701 15.0276 28.5241 15.5166 30.8023C15.5881 31.1359 15.7088 31.2504 16.0405 31.2259C16.5085 31.1914 16.9825 31.1905 17.4503 31.2263C17.7753 31.2512 17.8662 31.1149 17.932 30.8155C18.4078 28.6502 18.9011 26.489 19.3891 24.3265C19.6448 23.1931 19.9009 22.0598 20.166 20.8858C19.6171 20.8858 19.1153 20.9109 18.6174 20.8766C18.3052 20.8551 18.2213 20.9966 18.1664 21.2706C17.8201 23.0011 17.4781 24.7327 17.101 26.4561C16.9308 27.234 16.8791 28.0412 16.5957 28.8752C16.2072 26.2025 15.4805 23.6972 14.9477 21.1472C14.9016 20.9266 14.7845 20.8741 14.5822 20.8814C14.1751 20.8961 13.7664 20.9009 13.3598 20.8803C13.102 20.8673 13.0145 20.9666 12.9638 21.2243C12.8359 21.8751 12.6654 22.5167 12.5182 23.1635C12.0893 25.0488 11.6179 26.924 11.2614 28.8229V28.8229ZM43.4647 26.0612C43.4647 24.4689 43.4564 22.8764 43.4718 21.2842C43.4749 20.9656 43.3934 20.8553 43.0816 20.8793C42.7231 20.907 42.3586 20.9127 42.0011 20.8784C41.6205 20.8419 41.4904 20.9541 41.5023 21.3732C41.5329 22.4447 41.5061 23.5178 41.5171 24.5901C41.5198 24.8471 41.4767 24.9649 41.1889 24.9596C40.2016 24.9413 39.2137 24.9419 38.2264 24.9593C37.9433 24.9643 37.889 24.8533 37.894 24.592C37.9079 23.8774 37.9065 23.1621 37.8962 22.4473C37.8889 21.9469 38.0997 21.2852 37.8197 20.9889C37.5156 20.6673 36.8696 20.9358 36.3771 20.8805C36.0283 20.8413 35.9341 20.9543 35.9364 21.3255C35.9534 24.0876 35.9444 26.85 35.9467 29.6122C35.9472 30.1295 35.7664 30.847 36.02 31.1133C36.3372 31.4465 37.0252 31.171 37.5496 31.2222C37.8574 31.2522 37.9083 31.1204 37.9049 30.8344C37.8905 29.6159 37.9114 28.3969 37.8908 27.1787C37.8849 26.8294 37.9919 26.7447 38.3138 26.7519C39.2539 26.773 40.1951 26.7745 41.1351 26.7511C41.4582 26.7431 41.5263 26.857 41.519 27.1661C41.4998 27.978 41.4995 28.7911 41.5172 29.6031C41.5286 30.1326 41.2871 30.8597 41.6136 31.1364C41.9266 31.4017 42.6023 31.1898 43.1163 31.2243C43.4228 31.2448 43.4734 31.1255 43.4711 30.8383C43.4579 29.246 43.4647 27.6536 43.4647 26.0612H43.4647ZM21.3236 26.0478C21.3236 27.6407 21.3328 29.2336 21.316 30.8263C21.3126 31.1485 21.4006 31.2292 21.7043 31.2246C22.8958 31.2065 24.0878 31.2263 25.2793 31.2123C25.7113 31.2073 26.2866 31.4147 26.5344 31.1195C26.747 30.8661 26.5715 30.2828 26.6143 29.8504C26.6533 29.4562 26.4898 29.3986 26.1606 29.407C25.3143 29.4285 24.467 29.4026 23.6206 29.4205C23.3323 29.4266 23.2395 29.34 23.2495 29.0366C23.2709 28.3872 23.2697 27.7361 23.2499 27.0866C23.241 26.7958 23.347 26.7348 23.6031 26.7393C24.4182 26.7536 25.2339 26.7351 26.0491 26.7503C26.2939 26.7549 26.3799 26.6878 26.365 26.4266C26.3438 26.0541 26.3426 25.6781 26.3652 25.3058C26.3822 25.027 26.2916 24.9512 26.0272 24.9569C25.2278 24.9742 24.4277 24.9528 23.6283 24.9689C23.3577 24.9743 23.2314 24.926 23.2486 24.6026C23.2763 24.0841 23.271 23.5621 23.2501 23.0429C23.2386 22.7586 23.3347 22.6854 23.597 22.6897C24.4749 22.7044 25.3533 22.686 26.2312 22.7008C26.5041 22.7053 26.637 22.649 26.6129 22.3284C26.5863 21.9729 26.5871 21.6122 26.6128 21.2566C26.6352 20.9461 26.5221 20.8769 26.2394 20.8794C24.7341 20.8929 23.2286 20.8973 21.7235 20.8771C21.3803 20.8724 21.3136 20.9911 21.3168 21.3181C21.332 22.8945 21.3236 24.4712 21.3236 26.0478H21.3236ZM30.1066 26.9287C30.1066 27.8382 30.1041 28.7478 30.1075 29.6573C30.1094 30.1586 29.9341 30.8336 30.1777 31.1151C30.4555 31.4362 31.1209 31.1629 31.6119 31.2241C32.0135 31.2741 32.0613 31.0876 32.0592 30.7332C32.0459 28.4432 32.0524 26.1531 32.0524 23.863C32.0524 22.7201 32.0525 22.7296 33.165 22.7154C33.6128 22.7097 34.2265 22.9272 34.4626 22.6255C34.6873 22.3385 34.5267 21.7274 34.5354 21.2587C34.536 21.2263 34.5321 21.1934 34.5359 21.1614C34.5605 20.9554 34.4856 20.8807 34.2752 20.8814C32.1442 20.8886 30.0132 20.8881 27.8822 20.8823C27.6797 20.8817 27.6034 20.9497 27.6083 21.1603C27.6181 21.5823 27.6221 22.0052 27.607 22.4269C27.5983 22.6688 27.6907 22.7293 27.9092 22.7244C28.4887 22.7115 29.0695 22.7407 29.648 22.7124C29.9986 22.6952 30.1265 22.7756 30.1172 23.1771C30.0882 24.427 30.1066 25.6781 30.1066 26.9287Z" fill="#FDFDFD"/>
<path d="M7.65034 37.4412C5.87653 35.7229 4.50294 33.6991 3.48119 31.4277C-0.285207 23.0548 1.53403 13.3626 8.0752 7.11595C11.3037 4.03282 15.1283 2.23625 19.504 1.74117C22.9009 1.35683 26.186 1.82689 29.3523 3.16297C29.4861 3.21944 29.6662 3.22635 29.7336 3.43654C29.5573 3.61833 29.388 3.42908 29.2293 3.4099C22.8048 2.63406 17.0874 4.35149 12.1701 8.71666C8.16261 12.2742 5.74405 16.813 4.92387 22.2069C4.14232 27.3467 5.00355 32.2211 7.45694 36.7777C7.55555 36.9608 7.64463 37.1495 7.73814 37.3356C7.70887 37.3708 7.67961 37.406 7.65034 37.4412H7.65034Z" fill="#FC0077"/>
<path d="M7.79453 37.5692C7.7465 37.5264 7.69847 37.4837 7.65039 37.4411C7.67961 37.406 7.70887 37.3708 7.73814 37.3356C7.77474 37.3947 7.81134 37.4538 7.84793 37.5129C7.82988 37.5314 7.81208 37.5502 7.79453 37.5692Z" fill="#FC0077"/>
<path d="M7.84792 37.5129C7.85954 37.5506 7.88895 37.6149 7.87981 37.6215C7.82893 37.658 7.80935 37.6125 7.79453 37.5692C7.81207 37.5502 7.82987 37.5314 7.84792 37.5129Z" fill="#FC0077"/>
<path d="M11.2614 28.8229C11.6179 26.924 12.0893 25.0489 12.5182 23.1635C12.6654 22.5167 12.8359 21.8751 12.9638 21.2244C13.0145 20.9666 13.102 20.8673 13.3598 20.8803C13.7664 20.9009 14.1751 20.8961 14.5822 20.8814C14.7845 20.8741 14.9016 20.9266 14.9477 21.1472C15.4805 23.6972 16.2072 26.2025 16.5957 28.8753C16.8791 28.0412 16.9309 27.234 17.1011 26.4561C17.4781 24.7327 17.8201 23.0011 18.1664 21.2707C18.2213 20.9967 18.3052 20.8551 18.6174 20.8766C19.1153 20.9109 19.6171 20.8858 20.166 20.8858C19.9009 22.0599 19.6448 23.1931 19.3891 24.3265C18.9011 26.489 18.4078 28.6502 17.932 30.8156C17.8662 31.1149 17.7753 31.2512 17.4503 31.2263C16.9825 31.1905 16.5085 31.1914 16.0406 31.2259C15.7088 31.2504 15.5881 31.1359 15.5166 30.8023C15.0276 28.5241 14.4349 26.2701 14.0286 23.9723C14.0188 23.9169 13.9984 23.8634 13.9461 23.6795C13.7701 24.5612 13.6316 25.3196 13.4658 26.0714C13.1174 27.6515 12.7438 29.2257 12.4062 30.8082C12.3338 31.1473 12.2025 31.2472 11.8787 31.2253C11.4104 31.1936 10.9366 31.1906 10.4689 31.2263C10.1428 31.2512 10.0515 31.1031 9.98664 30.8132C9.28047 27.6547 8.56726 24.4978 7.84588 21.343C7.76902 21.0069 7.77143 20.8337 8.18611 20.8767C8.5897 20.9185 9.00069 20.894 9.408 20.8822C9.59748 20.8768 9.67355 20.9371 9.71471 21.1406C10.2314 23.6948 10.8301 26.2316 11.2614 28.8229Z" fill="#030102"/>
<path d="M43.4648 26.0612C43.4648 27.6536 43.4579 29.246 43.4711 30.8383C43.4735 31.1255 43.4228 31.2448 43.1163 31.2243C42.6023 31.1898 41.9266 31.4017 41.6136 31.1364C41.2871 30.8597 41.5287 30.1326 41.5172 29.6031C41.4995 28.7911 41.4998 27.978 41.519 27.1661C41.5263 26.857 41.4582 26.7431 41.1351 26.7511C40.1951 26.7745 39.2539 26.773 38.3138 26.7519C37.9919 26.7447 37.8849 26.8294 37.8908 27.1787C37.9114 28.3969 37.8905 29.6159 37.905 30.8344C37.9084 31.1204 37.8574 31.2522 37.5496 31.2222C37.0252 31.171 36.3373 31.4465 36.02 31.1133C35.7664 30.847 35.9472 30.1295 35.9467 29.6122C35.9444 26.8499 35.9534 24.0876 35.9364 21.3255C35.9342 20.9543 36.0283 20.8413 36.3772 20.8805C36.8696 20.9358 37.5156 20.6673 37.8197 20.9889C38.0997 21.2852 37.889 21.9469 37.8962 22.4473C37.9065 23.1621 37.9079 23.8774 37.894 24.592C37.889 24.8533 37.9433 24.9643 38.2264 24.9593C39.2137 24.9419 40.2017 24.9413 41.1889 24.9596C41.4767 24.9649 41.5198 24.8471 41.5172 24.5901C41.5062 23.5178 41.5329 22.4447 41.5024 21.3732C41.4904 20.9541 41.6205 20.8419 42.0012 20.8784C42.3586 20.9127 42.7231 20.907 43.0817 20.8793C43.3934 20.8553 43.4749 20.9656 43.4718 21.2842C43.4564 22.8764 43.4648 24.4689 43.4648 26.0612Z" fill="#030102"/>
<path d="M21.3237 26.0478C21.3236 24.4712 21.332 22.8945 21.3168 21.318C21.3136 20.991 21.3803 20.8724 21.7235 20.877C23.2286 20.8973 24.7341 20.8929 26.2394 20.8794C26.5222 20.8768 26.6352 20.9461 26.6128 21.2565C26.5872 21.6121 26.5863 21.9729 26.6129 22.3283C26.637 22.649 26.5041 22.7053 26.2312 22.7007C25.3533 22.686 24.4749 22.7043 23.597 22.6897C23.3347 22.6853 23.2386 22.7586 23.2501 23.0429C23.2711 23.5621 23.2763 24.084 23.2486 24.6026C23.2314 24.9259 23.3577 24.9743 23.6283 24.9689C24.4277 24.9527 25.2278 24.9742 26.0272 24.9568C26.2917 24.9511 26.3822 25.027 26.3652 25.3057C26.3426 25.6781 26.3438 26.054 26.365 26.4266C26.3799 26.6878 26.294 26.7549 26.0491 26.7503C25.2339 26.735 24.4182 26.7536 23.6031 26.7393C23.347 26.7348 23.241 26.7958 23.2499 27.0866C23.2697 27.7361 23.2709 28.3872 23.2495 29.0366C23.2395 29.3399 23.3323 29.4266 23.6206 29.4205C24.467 29.4025 25.3143 29.4285 26.1606 29.4069C26.4898 29.3986 26.6533 29.4562 26.6143 29.8504C26.5715 30.2828 26.747 30.8661 26.5344 31.1195C26.2867 31.4147 25.7113 31.2072 25.2794 31.2123C24.0878 31.2263 22.8958 31.2064 21.7043 31.2246C21.4006 31.2292 21.3127 31.1485 21.316 30.8263C21.3328 29.2336 21.3237 27.6406 21.3237 26.0478V26.0478Z" fill="#030102"/>
<path d="M30.1066 26.9287C30.1066 25.6781 30.0882 24.427 30.1172 23.1771C30.1265 22.7756 29.9986 22.6952 29.648 22.7124C29.0695 22.7407 28.4887 22.7115 27.9092 22.7244C27.6907 22.7293 27.5983 22.6688 27.607 22.4269C27.6221 22.0052 27.6181 21.5823 27.6083 21.1603C27.6035 20.9497 27.6797 20.8817 27.8822 20.8823C30.0132 20.8881 32.1442 20.8886 34.2752 20.8814C34.4856 20.8807 34.5605 20.9554 34.5359 21.1613C34.5321 21.1933 34.536 21.2263 34.5354 21.2587C34.5267 21.7274 34.6874 22.3385 34.4627 22.6255C34.2265 22.9271 33.6128 22.7097 33.165 22.7154C32.0525 22.7296 32.0524 22.7201 32.0524 23.863C32.0524 26.153 32.0459 28.4432 32.0592 30.7332C32.0613 31.0876 32.0135 31.2741 31.6119 31.224C31.1209 31.1629 30.4555 31.4362 30.1777 31.1151C29.9341 30.8336 30.1094 30.1586 30.1076 29.6573C30.1042 28.7478 30.1066 27.8382 30.1066 26.9287Z" fill="#030102"/>
</g>
<defs>
<clipPath id="clip0_73_357">
<rect width="48" height="48" fill="white"/>
</clipPath>
</defs>
</svg>
